<?xml version="1.0" encoding="UTF-8"?><svg id="Capa_1" xmlns="http://www.w3.org/2000/svg" viewBox="0 0 492.01 100"><defs><style>.cls-1,.cls-2,.cls-3{stroke-width:0px;}.cls-2{fill:#e40e20;}.cls-3{fill:#8c9092;}</style></defs><circle class="cls-2" cx="40" cy="70" r="10"/><polygon class="cls-1" points=".53 0 0 0 0 9.89 .53 9.89 89.52 9.89 89.52 81.98 0 81.98 0 91.88 89.52 91.88 89.52 100 100.01 100 100.01 0 .53 0"/><path class="cls-3" d="m0,20.78c.13.91.8,1.56,2.68,1.82v57.27s8.86,0,8.86,0v-24.21h46.58c2.55,8.59,7.52,17.31,17.05,24.34,1.61-1.56,4.97-3.9,7.12-5.08-15.71-11.19-17.85-26.81-17.85-38.52v-16.27s-11.28.65-11.28.65c.13.91.81,1.56,2.55,1.82v5.86H11.54v-8.46s-11.54.78-11.54.78Zm11.54,15.36h44.17c0,2.99,0,7.29.81,11.97H11.54v-11.97Z"/><path class="cls-1" d="m135.51,70.84h-8.89c-.42,0-.73-.11-.94-.34-.21-.23-.29-.55-.25-.97l5.37-41.43c.04-.38.18-.66.42-.86.24-.2.55-.3.93-.3h10.4c.73,0,1.19.36,1.38,1.06l7.6,27.28,7.57-27.28c.19-.71.65-1.06,1.38-1.06h10.43c.38,0,.69.1.93.3.24.2.38.48.42.86l5.4,41.46c.04.42-.04.74-.25.97-.21.23-.52.34-.94.34h-8.92c-.77,0-1.21-.4-1.32-1.19l-2.64-24.69-6.79,24.78c-.19.71-.65,1.06-1.38,1.06h-7.67c-.73,0-1.19-.35-1.38-1.06l-6.79-24.78-2.77,24.65c-.1.79-.54,1.19-1.32,1.19Z"/><path class="cls-1" d="m192.19,68.56c-3.51-2.04-6.27-4.8-8.3-8.28-2.02-3.48-3.03-7.3-3.03-11.47,0-5.19,1.57-9.85,4.71-13.97,1.07-1.41,2.33-2.69,3.72-3.78,4.21-3.31,9.06-4.97,14.54-4.97,4.25,0,8.13,1.01,11.63,3.03,3.5,2.02,6.26,4.77,8.28,8.23,2.02,3.47,3.03,7.29,3.03,11.45s-1.01,7.96-3.03,11.45c-2.02,3.49-4.79,6.25-8.3,8.3-3.51,2.04-7.38,3.06-11.61,3.06s-8.13-1.02-11.64-3.06Zm17.33-9.3c1.76-1.05,3.16-2.5,4.21-4.34,1.05-1.84,1.57-3.87,1.57-6.08s-.53-4.23-1.59-6.06c-1.06-1.83-2.47-3.28-4.23-4.33-1.76-1.05-3.64-1.58-5.66-1.58s-3.93.53-5.69,1.58c-1.76,1.05-3.17,2.49-4.23,4.33-1.06,1.83-1.59,3.85-1.59,6.06s.53,4.23,1.59,6.06c1.06,1.83,2.47,3.28,4.24,4.34,1.77,1.06,3.66,1.59,5.67,1.59s3.93-.53,5.69-1.58Z"/><path class="cls-1" d="m244.36,70.84h-11V28.19c0-.69.56-1.25,1.26-1.25h9.71c.67,0,1.17.27,1.51.81l15.05,24v-24.81h11v42.65c0,.69-.56,1.25-1.26,1.25h-8.64c-.65,0-1.15-.27-1.51-.81l-16.12-25.37v26.18Z"/><path class="cls-1" d="m280.69,70.84V26.94s0,0,0,0h16.62c4.27,0,8.19.96,11.74,2.88,3.55,1.92,6.36,4.55,8.42,7.89,2.06,3.34,3.1,7.07,3.1,11.17s-1.03,7.83-3.08,11.19c-2.05,3.35-4.85,5.99-8.39,7.9-3.54,1.92-7.44,2.88-11.69,2.88h-16.72Zm22.91-12.19c1.72-.94,3.06-2.25,4.04-3.95.97-1.7,1.46-3.64,1.46-5.83s-.49-4.07-1.46-5.77c-.97-1.7-2.33-3.02-4.05-3.97-1.73-.95-3.67-1.42-5.83-1.42h-5.75v22.34h5.78c2.16,0,4.1-.47,5.81-1.41Z"/><path class="cls-1" d="m363.49,69.94c0,.29-.09.52-.28.67-.19.16-.45.23-.79.23h-9.05c-.71,0-1.18-.34-1.41-1.03l-2.01-5.84h-15.84l-2.01,5.84c-.21.69-.68,1.03-1.41,1.03h-9.02c-.34,0-.6-.08-.8-.23-.2-.16-.3-.38-.3-.67,0-.17.03-.34.09-.53l16.09-41.53c.25-.67.73-1,1.45-1h7.76c.71,0,1.19.33,1.45,1l15.99,41.53c.06.19.09.36.09.53Zm-16.72-15.34l-4.21-12.31-.57-2-.47,2-4.21,12.31h9.46Z"/><path class="cls-1" d="m380.02,70.84h-11.31V26.94h11.31v43.9Z"/><path class="cls-1" d="m399.81,70.84h-11V28.19c0-.69.56-1.25,1.26-1.25h9.71c.67,0,1.17.27,1.51.81l15.05,24v-24.81h11v42.65c0,.69-.56,1.25-1.26,1.25h-8.64c-.65,0-1.15-.27-1.51-.81l-16.12-25.37v26.18Z"/><path class="cls-1" d="m475.48,69.94c0,.29-.09.52-.28.67-.19.16-.45.23-.79.23h-9.05c-.65,0-1.1-.29-1.35-.86-.02-.05-.05-.11-.07-.17l-2.01-5.84h-15.84l-2.01,5.84c-.21.69-.68,1.03-1.41,1.03h-9.02c-.34,0-.6-.08-.8-.23-.2-.16-.3-.38-.3-.67,0-.17.03-.34.09-.53l16.09-41.53c.25-.67.73-1,1.45-1h7.76c.41,0,.74.11.99.32.19.16.35.39.45.68l15.99,41.53c.06.19.09.36.09.53Zm-16.72-15.34l-4.21-12.31-.57-2-.47,2-4.21,12.31h9.46Z"/><path class="cls-1" d="m492.01,70.84h-11.31V26.94s0,0,0,0h11.31v43.9Z"/></svg>